<mxfile host="app.diagrams.net" modified="2022-08-11T01:50:52.852Z" agent="5.0 (Macintosh; Intel Mac OS X 10_15_7) AppleWebKit/537.36 (KHTML, like Gecko) Chrome/103.0.0.0 Safari/537.36" etag="uDtvKD0MhPgRHImfWkEJ" version="20.2.3" type="github">
  <diagram name="Page-1" id="74e2e168-ea6b-b213-b513-2b3c1d86103e">
    <mxGraphModel dx="1426" dy="743" grid="1" gridSize="10" guides="1" tooltips="1" connect="1" arrows="1" fold="1" page="1" pageScale="1" pageWidth="1100" pageHeight="850" background="none" math="0" shadow="0">
      <root>
        <mxCell id="0" />
        <mxCell id="1" parent="0" />
        <mxCell id="77e6c97f196da883-1" value="流程图" style="swimlane;html=1;childLayout=stackLayout;startSize=20;rounded=0;shadow=0;labelBackgroundColor=none;strokeWidth=1;fontFamily=Verdana;fontSize=8;align=center;" parent="1" vertex="1">
          <mxGeometry x="310" y="30" width="480" height="1240" as="geometry" />
        </mxCell>
        <mxCell id="77e6c97f196da883-26" style="edgeStyle=orthogonalEdgeStyle;rounded=1;html=1;labelBackgroundColor=none;startArrow=none;startFill=0;startSize=5;endArrow=classicThin;endFill=1;endSize=5;jettySize=auto;orthogonalLoop=1;strokeWidth=1;fontFamily=Verdana;fontSize=8;entryX=0;entryY=0.5;entryDx=0;entryDy=0;" parent="77e6c97f196da883-1" source="77e6c97f196da883-8" target="XfeK8-M2cs3fSpEW-vlW-1" edge="1">
          <mxGeometry relative="1" as="geometry" />
        </mxCell>
        <mxCell id="77e6c97f196da883-40" style="edgeStyle=orthogonalEdgeStyle;rounded=1;html=1;labelBackgroundColor=none;startArrow=none;startFill=0;startSize=5;endArrow=classicThin;endFill=1;endSize=5;jettySize=auto;orthogonalLoop=1;strokeWidth=1;fontFamily=Verdana;fontSize=8" parent="77e6c97f196da883-1" edge="1">
          <mxGeometry relative="1" as="geometry">
            <mxPoint x="660" y="20" as="sourcePoint" />
            <mxPoint x="660" y="20" as="targetPoint" />
          </mxGeometry>
        </mxCell>
        <mxCell id="77e6c97f196da883-2" value="App" style="swimlane;html=1;startSize=20;" parent="77e6c97f196da883-1" vertex="1">
          <mxGeometry y="20" width="160" height="1220" as="geometry" />
        </mxCell>
        <mxCell id="77e6c97f196da883-8" value="获取当前地图&lt;br&gt;（/map/get/）" style="rounded=1;whiteSpace=wrap;html=1;shadow=0;labelBackgroundColor=none;strokeWidth=1;fontFamily=Verdana;fontSize=8;align=center;" parent="77e6c97f196da883-2" vertex="1">
          <mxGeometry x="20" y="30" width="100" height="60" as="geometry" />
        </mxCell>
        <mxCell id="XfeK8-M2cs3fSpEW-vlW-39" style="edgeStyle=orthogonalEdgeStyle;rounded=0;orthogonalLoop=1;jettySize=auto;html=1;exitX=1;exitY=0.5;exitDx=0;exitDy=0;entryX=1;entryY=0.5;entryDx=0;entryDy=0;" edge="1" parent="77e6c97f196da883-2" source="XfeK8-M2cs3fSpEW-vlW-7" target="XfeK8-M2cs3fSpEW-vlW-12">
          <mxGeometry relative="1" as="geometry" />
        </mxCell>
        <mxCell id="XfeK8-M2cs3fSpEW-vlW-43" value="否" style="edgeLabel;html=1;align=center;verticalAlign=middle;resizable=0;points=[];" vertex="1" connectable="0" parent="XfeK8-M2cs3fSpEW-vlW-39">
          <mxGeometry x="-0.9149" y="2" relative="1" as="geometry">
            <mxPoint x="19" y="47" as="offset" />
          </mxGeometry>
        </mxCell>
        <mxCell id="XfeK8-M2cs3fSpEW-vlW-63" style="edgeStyle=orthogonalEdgeStyle;rounded=0;orthogonalLoop=1;jettySize=auto;html=1;exitX=0;exitY=0.5;exitDx=0;exitDy=0;entryX=0.5;entryY=0;entryDx=0;entryDy=0;" edge="1" parent="77e6c97f196da883-2" source="XfeK8-M2cs3fSpEW-vlW-7" target="XfeK8-M2cs3fSpEW-vlW-19">
          <mxGeometry relative="1" as="geometry">
            <Array as="points">
              <mxPoint x="10" y="325" />
              <mxPoint x="10" y="470" />
              <mxPoint x="70" y="470" />
            </Array>
          </mxGeometry>
        </mxCell>
        <mxCell id="XfeK8-M2cs3fSpEW-vlW-65" value="是" style="edgeLabel;html=1;align=center;verticalAlign=middle;resizable=0;points=[];" vertex="1" connectable="0" parent="XfeK8-M2cs3fSpEW-vlW-63">
          <mxGeometry x="-0.917" y="-1" relative="1" as="geometry">
            <mxPoint x="-4" y="16" as="offset" />
          </mxGeometry>
        </mxCell>
        <mxCell id="XfeK8-M2cs3fSpEW-vlW-66" style="edgeStyle=orthogonalEdgeStyle;rounded=0;orthogonalLoop=1;jettySize=auto;html=1;entryX=0;entryY=0.5;entryDx=0;entryDy=0;" edge="1" parent="77e6c97f196da883-2" target="77e6c97f196da883-8">
          <mxGeometry relative="1" as="geometry">
            <mxPoint x="10" y="340" as="sourcePoint" />
            <Array as="points">
              <mxPoint x="10" y="325" />
              <mxPoint x="10" y="60" />
            </Array>
          </mxGeometry>
        </mxCell>
        <mxCell id="XfeK8-M2cs3fSpEW-vlW-67" value="轮&lt;br&gt;询" style="edgeLabel;html=1;align=center;verticalAlign=middle;resizable=0;points=[];" vertex="1" connectable="0" parent="XfeK8-M2cs3fSpEW-vlW-66">
          <mxGeometry x="0.0828" y="-4" relative="1" as="geometry">
            <mxPoint as="offset" />
          </mxGeometry>
        </mxCell>
        <mxCell id="XfeK8-M2cs3fSpEW-vlW-7" value="临时地图" style="rhombus;whiteSpace=wrap;html=1;rounded=0;shadow=0;labelBackgroundColor=none;strokeWidth=1;fontFamily=Verdana;fontSize=8;align=center;" vertex="1" parent="77e6c97f196da883-2">
          <mxGeometry x="25" y="295" width="90" height="60" as="geometry" />
        </mxCell>
        <mxCell id="XfeK8-M2cs3fSpEW-vlW-12" value="展示分区地图" style="rounded=1;whiteSpace=wrap;html=1;shadow=0;labelBackgroundColor=none;strokeWidth=1;fontFamily=Verdana;fontSize=8;align=center;" vertex="1" parent="77e6c97f196da883-2">
          <mxGeometry x="20" y="390" width="100" height="60" as="geometry" />
        </mxCell>
        <mxCell id="XfeK8-M2cs3fSpEW-vlW-40" style="edgeStyle=orthogonalEdgeStyle;rounded=0;orthogonalLoop=1;jettySize=auto;html=1;exitX=0;exitY=0.5;exitDx=0;exitDy=0;entryX=0.5;entryY=0;entryDx=0;entryDy=0;" edge="1" parent="77e6c97f196da883-2" source="XfeK8-M2cs3fSpEW-vlW-19" target="XfeK8-M2cs3fSpEW-vlW-52">
          <mxGeometry relative="1" as="geometry">
            <Array as="points">
              <mxPoint x="5" y="535" />
              <mxPoint x="5" y="600" />
              <mxPoint x="70" y="600" />
            </Array>
          </mxGeometry>
        </mxCell>
        <mxCell id="XfeK8-M2cs3fSpEW-vlW-42" value="有" style="edgeLabel;html=1;align=center;verticalAlign=middle;resizable=0;points=[];" vertex="1" connectable="0" parent="XfeK8-M2cs3fSpEW-vlW-40">
          <mxGeometry x="-0.8872" y="-3" relative="1" as="geometry">
            <mxPoint y="3" as="offset" />
          </mxGeometry>
        </mxCell>
        <mxCell id="XfeK8-M2cs3fSpEW-vlW-68" style="edgeStyle=orthogonalEdgeStyle;rounded=0;orthogonalLoop=1;jettySize=auto;html=1;exitX=1;exitY=0.5;exitDx=0;exitDy=0;entryX=1;entryY=0.5;entryDx=0;entryDy=0;" edge="1" parent="77e6c97f196da883-2" source="XfeK8-M2cs3fSpEW-vlW-19" target="XfeK8-M2cs3fSpEW-vlW-12">
          <mxGeometry relative="1" as="geometry">
            <Array as="points">
              <mxPoint x="140" y="535" />
              <mxPoint x="140" y="420" />
            </Array>
          </mxGeometry>
        </mxCell>
        <mxCell id="XfeK8-M2cs3fSpEW-vlW-69" value="无" style="edgeLabel;html=1;align=center;verticalAlign=middle;resizable=0;points=[];" vertex="1" connectable="0" parent="XfeK8-M2cs3fSpEW-vlW-68">
          <mxGeometry x="-0.2" y="1" relative="1" as="geometry">
            <mxPoint as="offset" />
          </mxGeometry>
        </mxCell>
        <mxCell id="XfeK8-M2cs3fSpEW-vlW-19" value="MapIndex" style="rhombus;whiteSpace=wrap;html=1;rounded=0;shadow=0;labelBackgroundColor=none;strokeWidth=1;fontFamily=Verdana;fontSize=8;align=center;" vertex="1" parent="77e6c97f196da883-2">
          <mxGeometry x="25" y="505" width="90" height="60" as="geometry" />
        </mxCell>
        <mxCell id="XfeK8-M2cs3fSpEW-vlW-29" value="获取分区地图&lt;br&gt;（/getbyindex/）" style="rounded=1;whiteSpace=wrap;html=1;shadow=0;labelBackgroundColor=none;strokeWidth=1;fontFamily=Verdana;fontSize=8;align=center;" vertex="1" parent="77e6c97f196da883-2">
          <mxGeometry x="20" y="843" width="100" height="60" as="geometry" />
        </mxCell>
        <mxCell id="XfeK8-M2cs3fSpEW-vlW-32" value="分区地图" style="rhombus;whiteSpace=wrap;html=1;rounded=0;shadow=0;labelBackgroundColor=none;strokeWidth=1;fontFamily=Verdana;fontSize=8;align=center;" vertex="1" parent="77e6c97f196da883-2">
          <mxGeometry x="25" y="963" width="90" height="60" as="geometry" />
        </mxCell>
        <mxCell id="XfeK8-M2cs3fSpEW-vlW-46" value="融合地图并展示" style="rounded=1;whiteSpace=wrap;html=1;shadow=0;labelBackgroundColor=none;strokeWidth=1;fontFamily=Verdana;fontSize=8;align=center;" vertex="1" parent="77e6c97f196da883-2">
          <mxGeometry x="20" y="1063" width="100" height="60" as="geometry" />
        </mxCell>
        <mxCell id="XfeK8-M2cs3fSpEW-vlW-44" value="有" style="edgeStyle=orthogonalEdgeStyle;rounded=0;orthogonalLoop=1;jettySize=auto;html=1;exitX=0.5;exitY=1;exitDx=0;exitDy=0;entryX=0.5;entryY=0;entryDx=0;entryDy=0;" edge="1" parent="77e6c97f196da883-2" source="XfeK8-M2cs3fSpEW-vlW-32" target="XfeK8-M2cs3fSpEW-vlW-46">
          <mxGeometry relative="1" as="geometry">
            <mxPoint x="70" y="1053" as="targetPoint" />
          </mxGeometry>
        </mxCell>
        <mxCell id="XfeK8-M2cs3fSpEW-vlW-50" value="展示临时地图" style="rounded=1;whiteSpace=wrap;html=1;shadow=0;labelBackgroundColor=none;strokeWidth=1;fontFamily=Verdana;fontSize=8;align=center;" vertex="1" parent="77e6c97f196da883-2">
          <mxGeometry x="20" y="1150" width="100" height="60" as="geometry" />
        </mxCell>
        <mxCell id="XfeK8-M2cs3fSpEW-vlW-48" style="edgeStyle=orthogonalEdgeStyle;rounded=0;orthogonalLoop=1;jettySize=auto;html=1;exitX=1;exitY=0.5;exitDx=0;exitDy=0;entryX=1;entryY=0.5;entryDx=0;entryDy=0;" edge="1" parent="77e6c97f196da883-2" source="XfeK8-M2cs3fSpEW-vlW-32" target="XfeK8-M2cs3fSpEW-vlW-50">
          <mxGeometry relative="1" as="geometry">
            <mxPoint x="140" y="1203" as="targetPoint" />
          </mxGeometry>
        </mxCell>
        <mxCell id="XfeK8-M2cs3fSpEW-vlW-49" value="无" style="edgeLabel;html=1;align=center;verticalAlign=middle;resizable=0;points=[];" vertex="1" connectable="0" parent="XfeK8-M2cs3fSpEW-vlW-48">
          <mxGeometry x="-0.9319" y="2" relative="1" as="geometry">
            <mxPoint as="offset" />
          </mxGeometry>
        </mxCell>
        <mxCell id="XfeK8-M2cs3fSpEW-vlW-56" style="edgeStyle=orthogonalEdgeStyle;rounded=0;orthogonalLoop=1;jettySize=auto;html=1;exitX=1;exitY=0.5;exitDx=0;exitDy=0;entryX=0.5;entryY=0;entryDx=0;entryDy=0;" edge="1" parent="77e6c97f196da883-2" source="XfeK8-M2cs3fSpEW-vlW-52" target="XfeK8-M2cs3fSpEW-vlW-29">
          <mxGeometry relative="1" as="geometry">
            <Array as="points">
              <mxPoint x="140" y="650" />
              <mxPoint x="140" y="800" />
              <mxPoint x="70" y="800" />
            </Array>
          </mxGeometry>
        </mxCell>
        <mxCell id="XfeK8-M2cs3fSpEW-vlW-57" value="是" style="edgeLabel;html=1;align=center;verticalAlign=middle;resizable=0;points=[];" vertex="1" connectable="0" parent="XfeK8-M2cs3fSpEW-vlW-56">
          <mxGeometry x="-0.6259" relative="1" as="geometry">
            <mxPoint as="offset" />
          </mxGeometry>
        </mxCell>
        <mxCell id="XfeK8-M2cs3fSpEW-vlW-58" style="edgeStyle=orthogonalEdgeStyle;rounded=0;orthogonalLoop=1;jettySize=auto;html=1;exitX=0.5;exitY=1;exitDx=0;exitDy=0;entryX=0.5;entryY=0;entryDx=0;entryDy=0;" edge="1" parent="77e6c97f196da883-2" source="XfeK8-M2cs3fSpEW-vlW-52" target="XfeK8-M2cs3fSpEW-vlW-55">
          <mxGeometry relative="1" as="geometry" />
        </mxCell>
        <mxCell id="XfeK8-M2cs3fSpEW-vlW-52" value="MapIndex&lt;br&gt;变化" style="rhombus;whiteSpace=wrap;html=1;rounded=0;shadow=0;labelBackgroundColor=none;strokeWidth=1;fontFamily=Verdana;fontSize=8;align=center;" vertex="1" parent="77e6c97f196da883-2">
          <mxGeometry x="25" y="620" width="90" height="60" as="geometry" />
        </mxCell>
        <mxCell id="XfeK8-M2cs3fSpEW-vlW-59" style="edgeStyle=orthogonalEdgeStyle;rounded=0;orthogonalLoop=1;jettySize=auto;html=1;exitX=0.5;exitY=1;exitDx=0;exitDy=0;entryX=0.5;entryY=0;entryDx=0;entryDy=0;" edge="1" parent="77e6c97f196da883-2" source="XfeK8-M2cs3fSpEW-vlW-55" target="XfeK8-M2cs3fSpEW-vlW-29">
          <mxGeometry relative="1" as="geometry" />
        </mxCell>
        <mxCell id="XfeK8-M2cs3fSpEW-vlW-62" value="无" style="edgeLabel;html=1;align=center;verticalAlign=middle;resizable=0;points=[];" vertex="1" connectable="0" parent="XfeK8-M2cs3fSpEW-vlW-59">
          <mxGeometry x="-0.5616" y="1" relative="1" as="geometry">
            <mxPoint as="offset" />
          </mxGeometry>
        </mxCell>
        <mxCell id="XfeK8-M2cs3fSpEW-vlW-60" style="edgeStyle=orthogonalEdgeStyle;rounded=0;orthogonalLoop=1;jettySize=auto;html=1;exitX=0;exitY=0.5;exitDx=0;exitDy=0;entryX=0;entryY=0.5;entryDx=0;entryDy=0;" edge="1" parent="77e6c97f196da883-2" source="XfeK8-M2cs3fSpEW-vlW-55" target="XfeK8-M2cs3fSpEW-vlW-46">
          <mxGeometry relative="1" as="geometry">
            <Array as="points">
              <mxPoint x="10" y="740" />
              <mxPoint x="10" y="1093" />
            </Array>
          </mxGeometry>
        </mxCell>
        <mxCell id="XfeK8-M2cs3fSpEW-vlW-61" value="有" style="edgeLabel;html=1;align=center;verticalAlign=middle;resizable=0;points=[];" vertex="1" connectable="0" parent="XfeK8-M2cs3fSpEW-vlW-60">
          <mxGeometry x="-0.9381" relative="1" as="geometry">
            <mxPoint as="offset" />
          </mxGeometry>
        </mxCell>
        <mxCell id="XfeK8-M2cs3fSpEW-vlW-55" value="已有分区地图" style="rhombus;whiteSpace=wrap;html=1;rounded=0;shadow=0;labelBackgroundColor=none;strokeWidth=1;fontFamily=Verdana;fontSize=8;align=center;" vertex="1" parent="77e6c97f196da883-2">
          <mxGeometry x="25" y="710" width="90" height="60" as="geometry" />
        </mxCell>
        <mxCell id="77e6c97f196da883-3" value="服务端" style="swimlane;html=1;startSize=20;" parent="77e6c97f196da883-1" vertex="1">
          <mxGeometry x="160" y="20" width="160" height="1220" as="geometry" />
        </mxCell>
        <mxCell id="77e6c97f196da883-11" value="返回分区地图" style="rounded=1;whiteSpace=wrap;html=1;shadow=0;labelBackgroundColor=none;strokeWidth=1;fontFamily=Verdana;fontSize=8;align=center;" parent="77e6c97f196da883-3" vertex="1">
          <mxGeometry x="35" y="170" width="100" height="60" as="geometry" />
        </mxCell>
        <mxCell id="XfeK8-M2cs3fSpEW-vlW-8" style="edgeStyle=orthogonalEdgeStyle;rounded=0;orthogonalLoop=1;jettySize=auto;html=1;exitX=0.5;exitY=1;exitDx=0;exitDy=0;entryX=0.5;entryY=0;entryDx=0;entryDy=0;" edge="1" parent="77e6c97f196da883-3" source="XfeK8-M2cs3fSpEW-vlW-1" target="77e6c97f196da883-11">
          <mxGeometry relative="1" as="geometry" />
        </mxCell>
        <mxCell id="XfeK8-M2cs3fSpEW-vlW-16" value="否" style="edgeLabel;html=1;align=center;verticalAlign=middle;resizable=0;points=[];" vertex="1" connectable="0" parent="XfeK8-M2cs3fSpEW-vlW-8">
          <mxGeometry x="-0.3" relative="1" as="geometry">
            <mxPoint as="offset" />
          </mxGeometry>
        </mxCell>
        <mxCell id="XfeK8-M2cs3fSpEW-vlW-1" value="建图中/清扫中" style="rhombus;whiteSpace=wrap;html=1;rounded=0;shadow=0;labelBackgroundColor=none;strokeWidth=1;fontFamily=Verdana;fontSize=8;align=center;" vertex="1" parent="77e6c97f196da883-3">
          <mxGeometry x="40" y="30" width="90" height="60" as="geometry" />
        </mxCell>
        <mxCell id="XfeK8-M2cs3fSpEW-vlW-6" value="返回临时地图" style="rounded=1;whiteSpace=wrap;html=1;shadow=0;labelBackgroundColor=none;strokeWidth=1;fontFamily=Verdana;fontSize=8;align=center;" vertex="1" parent="77e6c97f196da883-3">
          <mxGeometry x="35" y="250" width="100" height="60" as="geometry" />
        </mxCell>
        <mxCell id="XfeK8-M2cs3fSpEW-vlW-30" value="返回分区地图" style="rounded=1;whiteSpace=wrap;html=1;shadow=0;labelBackgroundColor=none;strokeWidth=1;fontFamily=Verdana;fontSize=8;align=center;" vertex="1" parent="77e6c97f196da883-3">
          <mxGeometry x="30" y="903" width="100" height="60" as="geometry" />
        </mxCell>
        <mxCell id="77e6c97f196da883-4" value="Ros&amp;nbsp;" style="swimlane;html=1;startSize=20;" parent="77e6c97f196da883-1" vertex="1">
          <mxGeometry x="320" y="20" width="160" height="1220" as="geometry" />
        </mxCell>
        <mxCell id="XfeK8-M2cs3fSpEW-vlW-2" value="上传临时地图" style="rounded=1;whiteSpace=wrap;html=1;shadow=0;labelBackgroundColor=none;strokeWidth=1;fontFamily=Verdana;fontSize=8;align=center;" vertex="1" parent="77e6c97f196da883-4">
          <mxGeometry x="30" y="30" width="100" height="60" as="geometry" />
        </mxCell>
        <mxCell id="XfeK8-M2cs3fSpEW-vlW-34" value="分区完成&lt;br&gt;上传分区地图" style="rounded=1;whiteSpace=wrap;html=1;shadow=0;labelBackgroundColor=none;strokeWidth=1;fontFamily=Verdana;fontSize=8;align=center;" vertex="1" parent="77e6c97f196da883-4">
          <mxGeometry x="30" y="750" width="100" height="60" as="geometry" />
        </mxCell>
        <mxCell id="XfeK8-M2cs3fSpEW-vlW-5" value="是" style="edgeStyle=orthogonalEdgeStyle;rounded=0;orthogonalLoop=1;jettySize=auto;html=1;exitX=1;exitY=0.5;exitDx=0;exitDy=0;" edge="1" parent="77e6c97f196da883-1" source="XfeK8-M2cs3fSpEW-vlW-1" target="XfeK8-M2cs3fSpEW-vlW-2">
          <mxGeometry relative="1" as="geometry" />
        </mxCell>
        <mxCell id="XfeK8-M2cs3fSpEW-vlW-4" value="" style="edgeStyle=orthogonalEdgeStyle;rounded=0;orthogonalLoop=1;jettySize=auto;html=1;entryX=1;entryY=0.5;entryDx=0;entryDy=0;exitX=0.5;exitY=1;exitDx=0;exitDy=0;" edge="1" parent="77e6c97f196da883-1" source="XfeK8-M2cs3fSpEW-vlW-2" target="XfeK8-M2cs3fSpEW-vlW-6">
          <mxGeometry relative="1" as="geometry">
            <mxPoint x="400" y="150" as="targetPoint" />
          </mxGeometry>
        </mxCell>
        <mxCell id="XfeK8-M2cs3fSpEW-vlW-9" style="edgeStyle=orthogonalEdgeStyle;rounded=0;orthogonalLoop=1;jettySize=auto;html=1;exitX=0;exitY=0.5;exitDx=0;exitDy=0;entryX=0.5;entryY=0;entryDx=0;entryDy=0;" edge="1" parent="77e6c97f196da883-1" source="77e6c97f196da883-11" target="XfeK8-M2cs3fSpEW-vlW-7">
          <mxGeometry relative="1" as="geometry">
            <Array as="points">
              <mxPoint x="180" y="220" />
              <mxPoint x="180" y="260" />
              <mxPoint x="70" y="260" />
            </Array>
          </mxGeometry>
        </mxCell>
        <mxCell id="XfeK8-M2cs3fSpEW-vlW-10" style="edgeStyle=orthogonalEdgeStyle;rounded=0;orthogonalLoop=1;jettySize=auto;html=1;exitX=0;exitY=0.5;exitDx=0;exitDy=0;entryX=0.5;entryY=0;entryDx=0;entryDy=0;" edge="1" parent="77e6c97f196da883-1" source="XfeK8-M2cs3fSpEW-vlW-6" target="XfeK8-M2cs3fSpEW-vlW-7">
          <mxGeometry relative="1" as="geometry">
            <Array as="points">
              <mxPoint x="180" y="300" />
              <mxPoint x="180" y="260" />
              <mxPoint x="70" y="260" />
            </Array>
          </mxGeometry>
        </mxCell>
        <mxCell id="XfeK8-M2cs3fSpEW-vlW-31" style="edgeStyle=orthogonalEdgeStyle;rounded=0;orthogonalLoop=1;jettySize=auto;html=1;exitX=1;exitY=0.5;exitDx=0;exitDy=0;entryX=0.5;entryY=0;entryDx=0;entryDy=0;" edge="1" parent="77e6c97f196da883-1" source="XfeK8-M2cs3fSpEW-vlW-29" target="XfeK8-M2cs3fSpEW-vlW-30">
          <mxGeometry relative="1" as="geometry" />
        </mxCell>
        <mxCell id="XfeK8-M2cs3fSpEW-vlW-33" style="edgeStyle=orthogonalEdgeStyle;rounded=0;orthogonalLoop=1;jettySize=auto;html=1;exitX=0;exitY=0.5;exitDx=0;exitDy=0;entryX=0.5;entryY=0;entryDx=0;entryDy=0;" edge="1" parent="77e6c97f196da883-1" source="XfeK8-M2cs3fSpEW-vlW-30" target="XfeK8-M2cs3fSpEW-vlW-32">
          <mxGeometry relative="1" as="geometry" />
        </mxCell>
        <mxCell id="XfeK8-M2cs3fSpEW-vlW-41" style="edgeStyle=orthogonalEdgeStyle;rounded=0;orthogonalLoop=1;jettySize=auto;html=1;exitX=0.5;exitY=1;exitDx=0;exitDy=0;entryX=1;entryY=0.5;entryDx=0;entryDy=0;" edge="1" parent="77e6c97f196da883-1" source="XfeK8-M2cs3fSpEW-vlW-34" target="XfeK8-M2cs3fSpEW-vlW-30">
          <mxGeometry relative="1" as="geometry">
            <mxPoint x="400" y="650" as="sourcePoint" />
          </mxGeometry>
        </mxCell>
      </root>
    </mxGraphModel>
  </diagram>
</mxfile>
